<?xml version="1.0" standalone="no"?>
<!DOCTYPE svg PUBLIC "-//W3C//DTD SVG 20010904//EN"
 "http://www.w3.org/TR/2001/REC-SVG-20010904/DTD/svg10.dtd">
<svg version="1.0" xmlns="http://www.w3.org/2000/svg"
 width="274.000000pt" height="68.000000pt" viewBox="0 0 274.000000 68.000000"
 preserveAspectRatio="xMidYMid meet">

<g transform="translate(0.000000,68.000000) scale(0.100000,-0.100000)"
fill="#000000" stroke="none">
<path d="M20 459 l0 -172 40 7 c71 11 169 66 244 135 l39 36 -26 -45 c-15 -25
-46 -65 -69 -89 -43 -44 -146 -101 -183 -101 -37 0 -48 -15 -42 -55 12 -73 70
-125 140 -125 l37 0 0 110 0 110 49 0 c61 0 97 13 135 48 53 50 73 145 42 201
l-13 24 -14 -36 c-12 -35 -29 -50 -29 -26 0 5 -3 8 -7 6 -5 -3 -13 1 -20 8 -9
10 -5 17 17 34 16 11 35 21 41 21 21 0 -24 42 -66 61 -33 15 -66 19 -177 19
l-138 0 0 -171z"/>
<path d="M510 231 l0 -181 111 0 110 0 -3 33 c-3 32 -3 32 -65 35 l-62 3 -3
142 -3 142 -42 3 -43 3 0 -180z"/>
<path d="M913 248 c-34 -90 -65 -171 -69 -181 -6 -16 -2 -18 36 -15 40 3 44 6
55 38 l12 35 72 3 71 3 6 -30 c8 -40 25 -53 67 -49 l34 3 -68 175 -67 175 -43
3 -44 3 -62 -163z m126 20 c12 -34 21 -66 21 -70 0 -4 -21 -8 -46 -8 -33 0
-45 4 -41 13 2 6 13 38 23 70 10 31 19 57 20 57 1 0 12 -28 23 -62z"/>
<path d="M1330 230 l0 -180 35 0 34 0 3 108 3 109 86 -106 c72 -90 90 -106
117 -109 l32 -3 0 180 0 181 -35 0 -34 0 -3 -112 -3 -113 -89 113 c-76 95 -94
112 -118 112 l-28 0 0 -180z"/>
<path d="M1800 231 l0 -181 45 0 45 0 -2 177 -3 178 -42 3 -43 3 0 -180z"/>
<path d="M2050 229 l0 -180 43 3 42 3 3 68 3 67 59 0 c60 0 60 0 60 30 l0 30
-60 0 -60 0 0 45 0 45 70 0 70 0 0 35 0 35 -115 0 -115 0 0 -181z"/>
<path d="M2411 373 c100 -167 109 -189 109 -257 l0 -66 40 0 40 0 0 68 c0 65
3 71 66 177 l65 110 -27 3 c-55 7 -69 -4 -106 -85 l-36 -77 -41 82 -41 82 -46
0 -46 0 23 -37z"/>
</g>
</svg>
